{"glyphs":{":":{"x_min":0,"x_max":276,"ha":276,"o":"m 236 514 q 236 473 208 444 q 179 416 138 416 q 97 416 68 444 q 40 473 40 514 q 40 555 68 584 q 97 612 138 612 q 179 612 208 584 q 236 555 236 514 z m 236 220 q 236 179 208 150 q 179 122 138 122 q 97 122 68 150 q 40 179 40 220 q 40 261 68 290 q 97 318 138 318 q 179 318 208 290 q 236 261 236 220 z"},"$":{"x_min":0,"x_max":627,"ha":627,"o":"m 587 252 q 587 211 572 172 q 558 134 532 102 q 506 69 471 45 q 436 21 395 8 l 395 -39 l 232 -39 l 232 8 q 191 21 156 45 q 121 69 95 102 q 69 134 54 172 q 40 211 40 252 l 204 252 q 204 236 212 221 q 219 206 232 193 l 232 301 q 197 309 162 322 q 128 335 101 356 q 74 377 57 408 q 40 438 40 482 q 40 524 54 562 q 69 601 95 633 q 121 665 156 690 q 191 714 232 727 l 232 774 l 395 774 l 395 727 q 436 714 471 690 q 506 665 532 633 q 558 601 572 562 q 587 524 587 482 l 424 482 q 424 515 395 542 l 395 433 q 430 425 464 412 q 499 399 526 378 q 553 357 570 326 q 587 296 587 252 z m 204 483 q 213 476 232 470 l 232 542 q 219 529 212 514 q 204 499 204 483 z m 395 193 q 408 206 416 220 q 423 235 424 251 q 419 254 412 258 q 405 261 395 264 z"},"?":{"x_min":0,"x_max":562,"ha":562,"o":"m 521 489 q 521 461 512 434 q 502 408 487 385 q 472 362 453 344 q 434 325 415 314 q 384 296 374 288 q 365 280 363 278 q 362 276 362 270 q 361 264 361 256 q 361 249 361 242 q 361 234 361 228 l 197 228 q 197 271 202 302 q 206 334 220 360 q 235 385 262 407 q 289 429 333 455 q 340 460 348 472 q 357 483 358 489 q 358 521 336 544 q 313 566 281 566 q 249 566 226 544 q 204 521 204 489 l 40 489 q 40 539 59 583 q 78 627 110 660 q 143 692 187 711 q 231 730 281 730 q 331 730 375 711 q 419 692 452 660 q 484 627 503 583 q 522 539 522 489 z m 281 194 q 322 194 350 166 q 379 137 379 95 q 379 54 350 26 q 322 -3 281 -3 q 240 -3 212 26 q 183 54 183 95 q 183 137 212 166 q 240 194 281 194 z"},"<":{"x_min":0,"x_max":561,"ha":561,"o":"m 521 112 l 40 223 l 40 458 l 521 569 l 521 401 l 258 340 l 521 280 l 521 112 z"},"'":{"x_min":0,"x_max":244,"ha":244,"o":"m 204 486 l 40 486 l 40 737 l 204 737 l 204 486 z"},"=":{"x_min":0,"x_max":503,"ha":503,"o":"m 40 166 l 40 329 l 463 329 l 463 166 z m 40 565 l 463 565 l 463 401 l 40 401 z"},"a":{"x_min":0,"x_max":671,"ha":671,"o":"m 457 736 l 631 0 l 463 0 l 443 82 l 227 82 l 208 0 l 40 0 l 213 736 z m 266 245 l 405 245 l 335 540 z"},"L":{"x_min":0,"x_max":494,"ha":494,"o":"m 204 163 l 454 163 l 454 0 l 40 0 l 40 736 l 204 736 l 204 163 z"},"3":{"x_min":0,"x_max":581,"ha":581,"o":"m 471 402 q 505 368 523 325 q 541 282 541 234 q 541 186 523 142 q 505 99 471 65 q 437 31 394 14 q 350 -4 302 -4 l 279 -4 q 231 -4 188 14 q 144 31 110 65 q 76 99 58 142 q 40 186 40 234 l 204 234 q 204 202 226 181 q 248 159 279 159 l 302 159 q 333 159 355 181 q 377 202 377 234 q 377 266 355 287 q 333 309 302 309 l 241 309 l 241 472 l 242 472 l 242 474 l 295 474 q 317 474 331 489 q 347 505 347 526 q 347 547 331 563 q 316 578 295 578 l 271 578 q 251 578 234 563 q 219 548 219 526 l 55 526 q 55 569 72 608 q 88 647 118 678 q 149 709 188 725 q 227 741 271 741 l 295 741 q 338 741 377 725 q 416 709 447 678 q 478 647 494 608 q 510 569 510 526 q 510 458 471 402 z"},";":{"x_min":0,"x_max":358,"ha":358,"o":"m 156 -189 l 40 -73 q 88 -25 113 36 q 138 96 138 164 l 302 164 q 302 64 264 -27 q 227 -118 156 -189 z m 318 514 q 318 473 290 444 q 261 416 220 416 q 179 416 150 444 q 122 473 122 514 q 122 555 150 584 q 179 612 220 612 q 261 612 290 584 q 318 555 318 514 z"},"J":{"x_min":0,"x_max":612,"ha":612,"o":"m 306 0 q 252 0 204 20 q 156 40 118 78 q 80 116 60 164 q 40 212 40 266 l 40 363 l 204 363 l 204 266 q 204 246 212 227 q 219 208 234 194 q 248 179 267 172 q 286 164 306 164 q 327 164 346 172 q 364 180 378 194 q 392 207 400 226 q 408 245 408 266 l 408 734 l 572 734 l 572 266 q 572 211 551 162 q 530 114 494 78 q 458 42 410 21 q 361 0 306 0 z"},"V":{"x_min":0,"x_max":671,"ha":671,"o":"m 463 735 l 631 735 l 457 0 l 213 0 l 40 735 l 208 735 l 335 195 l 463 735 z"},"\"":{"x_min":0,"x_max":244,"ha":244,"o":"m 204 486 l 40 486 l 40 737 l 204 737 l 204 486 z"},"7":{"x_min":0,"x_max":569,"ha":569,"o":"m 40 729 l 529 729 l 529 560 l 289 0 l 111 0 l 353 565 l 40 565 l 40 729 z"},"S":{"x_min":0,"x_max":627,"ha":627,"o":"m 314 0 q 259 0 210 21 q 160 42 122 77 q 85 112 62 159 q 40 206 40 257 l 204 257 q 204 239 214 222 q 223 206 238 193 q 253 180 273 172 q 293 164 314 164 q 334 164 354 172 q 373 180 388 192 q 404 205 414 222 q 423 238 424 256 q 417 262 402 267 q 387 272 369 276 q 351 281 332 284 q 313 288 299 291 q 260 298 215 310 q 170 321 131 342 q 92 363 66 398 q 40 432 40 487 q 40 538 62 585 q 85 632 122 668 q 160 703 210 724 q 259 745 314 745 q 368 745 418 724 q 467 703 504 668 q 542 632 564 585 q 587 538 587 487 l 424 487 q 424 505 414 522 q 405 539 390 552 q 374 565 354 573 q 335 581 314 581 q 293 581 274 573 q 254 565 238 552 q 223 539 214 522 q 204 506 204 488 q 210 482 225 477 q 240 472 258 467 q 277 462 296 458 q 315 455 330 452 q 368 444 413 434 q 458 423 496 402 q 535 381 561 346 q 587 312 587 257 q 587 206 564 159 q 542 112 504 77 q 467 42 418 21 q 368 0 314 0 z"},"}":{"x_min":0,"x_max":354,"ha":354,"o":"m 40 729 l 314 729 l 314 0 l 40 0 l 40 163 l 151 163 l 151 566 l 40 566 l 40 729 z"},"Z":{"x_min":0,"x_max":572,"ha":572,"o":"m 530 0 l 40 0 l 43 150 l 325 571 l 42 571 l 42 734 l 532 734 l 530 584 l 248 163 l 530 163 l 530 0 z"},"x":{"x_min":0,"x_max":689,"ha":689,"o":"m 649 734 l 439 367 l 649 0 l 461 0 l 344 203 l 228 0 l 40 0 l 250 367 l 40 734 l 229 734 l 344 532 l 460 734 l 649 734 z"},")":{"x_min":0,"x_max":347,"ha":347,"o":"m 223 737 q 390 364 223 0 l 40 0 q 143 184 143 366 q 143 547 40 737 z"},"&":{"x_min":0,"x_max":671,"ha":671,"o":"m 260 -4 l 249 -4 q 242 -4 239 -3 q 173 1 124 38 q 75 75 53 136 q 38 179 41 217 q 44 256 59 287 q 76 321 99 347 q 112 361 125 374 q 138 387 152 399 q 137 414 126 429 q 114 447 105 468 q 88 508 91 555 q 94 597 119 639 q 144 679 185 705 q 225 728 273 733 q 329 737 380 711 q 405 698 424 679 q 443 660 457 635 q 484 586 483 534 q 480 478 449 434 q 444 426 438 419 q 432 412 425 404 q 418 397 411 390 q 404 384 396 377 l 631 115 l 508 4 l 454 64 q 434 48 411 36 q 388 24 362 14 q 311 -4 260 -4 z m 264 276 q 230 250 216 229 q 203 210 210 191 q 215 178 223 171 q 232 163 252 162 q 263 161 274 162 q 286 163 298 167 q 320 174 343 187 z m 288 568 l 286 568 q 276 566 270 562 q 263 557 260 552 q 254 545 256 538 q 256 533 258 531 q 259 526 268 517 q 273 512 276 508 q 280 504 284 500 l 284 499 q 303 514 313 529 q 313 529 317 537 q 320 543 313 553 q 312 554 310 556 q 309 558 306 561 q 300 568 288 568 z"},"_":{"x_min":0,"x_max":533,"ha":533,"o":"m 493 0 l 40 0 l 40 163 l 493 163 l 493 0 z"},"v":{"x_min":0,"x_max":671,"ha":671,"o":"m 463 735 l 631 735 l 457 0 l 213 0 l 40 735 l 208 735 l 335 195 l 463 735 z"},"O":{"x_min":0,"x_max":816,"ha":816,"o":"m 408 735 q 484 735 551 706 q 618 677 668 628 q 718 578 747 511 q 776 444 776 368 q 776 291 747 224 q 718 157 668 108 q 618 58 551 29 q 484 0 408 0 q 332 0 265 29 q 198 58 148 108 q 98 157 69 224 q 40 291 40 368 q 40 444 69 511 q 98 578 148 628 q 198 677 265 706 q 332 735 408 735 z m 408 163 q 450 163 488 179 q 525 195 552 223 q 580 251 596 288 q 612 326 612 368 q 612 410 596 447 q 580 484 552 512 q 525 540 488 556 q 450 572 408 572 q 366 572 328 556 q 291 540 264 512 q 236 484 220 447 q 204 410 204 368 q 204 326 220 288 q 236 251 264 223 q 291 195 328 179 q 366 163 408 163 z"},"(":{"x_min":0,"x_max":346,"ha":346,"o":"m 124 0 q -43 373 123 737 l 306 737 q 204 553 204 370 q 204 188 306 0 z"},"C":{"x_min":0,"x_max":729,"ha":729,"o":"m 368 -1 q 351 -1 334 1 q 318 3 302 6 q 286 9 270 14 q 255 19 240 25 q 226 32 212 40 q 198 47 184 56 q 171 64 159 74 q 147 85 136 96 q 113 117 96 144 q 78 171 65 200 q 54 228 46 262 q 40 293 40 328 l 40 404 q 40 437 46 470 q 50 486 54 502 q 59 517 65 532 q 72 546 80 560 q 87 574 96 587 q 104 601 114 613 q 125 625 136 636 q 157 657 184 676 q 210 693 240 706 q 255 712 270 717 q 286 722 302 725 q 368 739 434 725 q 450 722 466 717 q 481 712 496 706 q 527 693 551 676 q 578 658 600 636 q 622 614 640 587 q 657 563 670 532 q 682 504 689 470 l 529 437 q 526 453 520 468 q 512 484 504 496 q 497 509 484 520 q 479 526 473 530 q 467 535 460 540 q 448 548 432 556 q 417 562 401 565 q 367 573 335 565 q 319 562 304 556 q 288 548 276 540 q 269 535 263 530 q 257 526 251 520 q 239 508 231 496 q 221 482 216 468 q 213 460 210 452 q 208 445 206 437 q 203 420 203 404 l 203 328 q 203 310 206 294 q 208 286 210 278 q 213 271 216 264 q 223 247 231 236 q 236 229 241 223 q 246 217 251 211 q 257 206 263 201 q 269 196 276 191 q 290 181 304 176 q 312 173 320 170 q 327 168 335 166 q 367 160 401 166 q 409 168 416 170 q 424 173 432 176 q 446 181 460 191 q 472 199 484 211 q 490 217 495 223 q 500 229 504 236 q 509 242 512 249 q 516 256 520 264 q 523 271 525 278 q 527 286 529 294 l 689 262 q 683 229 670 200 q 659 172 640 144 q 631 131 621 119 q 611 107 600 96 q 589 85 577 74 q 565 64 551 56 q 538 47 524 40 q 510 32 496 25 q 481 19 466 14 q 450 9 434 6 q 417 3 401 1 q 385 -1 368 -1 z"},"W":{"x_min":0,"x_max":1091,"ha":1091,"o":"m 883 735 l 1051 735 l 878 0 l 634 0 l 546 375 l 457 0 l 213 0 l 40 735 l 208 735 l 335 195 l 462 732 l 461 735 l 631 735 l 630 732 l 756 195 l 883 735 z"},"A":{"x_min":0,"x_max":671,"ha":671,"o":"m 457 736 l 631 0 l 463 0 l 443 82 l 227 82 l 208 0 l 40 0 l 213 736 z m 266 245 l 405 245 l 335 540 z"},"f":{"x_min":0,"x_max":521,"ha":521,"o":"m 481 572 l 204 572 l 204 449 l 481 449 l 481 286 l 204 286 l 204 0 l 40 0 l 40 735 l 481 735 l 481 572 z"},"Q":{"x_min":0,"x_max":816,"ha":816,"o":"m 390 0 l 367 2 q 298 9 238 40 q 179 72 134 121 q 90 170 65 234 q 40 297 40 368 q 40 444 69 511 q 98 578 148 628 q 198 677 265 706 q 332 735 408 735 q 484 735 551 706 q 618 677 668 628 q 718 578 747 511 q 776 444 776 368 q 776 311 760 260 q 743 208 714 163 l 776 163 l 776 0 z m 204 368 q 204 326 220 288 q 236 251 264 223 q 291 195 328 179 q 366 163 408 163 q 450 163 488 179 q 525 195 552 223 q 580 251 596 288 q 612 326 612 368 q 612 410 596 447 q 580 484 552 512 q 525 540 488 556 q 450 572 408 572 q 366 572 328 556 q 291 540 264 512 q 236 484 220 447 q 204 410 204 368 z"},"w":{"x_min":0,"x_max":1091,"ha":1091,"o":"m 883 735 l 1051 735 l 878 0 l 634 0 l 546 375 l 457 0 l 213 0 l 40 735 l 208 735 l 335 195 l 462 732 l 461 735 l 631 735 l 630 732 l 756 195 l 883 735 z"},"-":{"x_min":0,"x_max":438,"ha":438,"o":"m 398 285 l 40 285 l 40 449 l 398 449 l 398 285 z"},"E":{"x_min":0,"x_max":556,"ha":556,"o":"m 516 572 l 204 572 l 204 449 l 516 449 l 516 286 l 204 286 l 204 163 l 516 163 l 516 0 l 142 0 l 142 0 l 40 0 l 40 736 l 204 736 l 204 735 l 516 735 l 516 572 z"},"s":{"x_min":0,"x_max":627,"ha":627,"o":"m 314 0 q 259 0 210 21 q 160 42 122 77 q 85 112 62 159 q 40 206 40 257 l 204 257 q 204 239 214 222 q 223 206 238 193 q 253 180 273 172 q 293 164 314 164 q 334 164 354 172 q 373 180 388 192 q 404 205 414 222 q 423 238 424 256 q 417 262 402 267 q 387 272 369 276 q 351 281 332 284 q 313 288 299 291 q 260 298 215 310 q 170 321 131 342 q 92 363 66 398 q 40 432 40 487 q 40 538 62 585 q 85 632 122 668 q 160 703 210 724 q 259 745 314 745 q 368 745 418 724 q 467 703 504 668 q 542 632 564 585 q 587 538 587 487 l 424 487 q 424 505 414 522 q 405 539 390 552 q 374 565 354 573 q 335 581 314 581 q 293 581 274 573 q 254 565 238 552 q 223 539 214 522 q 204 506 204 488 q 210 482 225 477 q 240 472 258 467 q 277 462 296 458 q 315 455 330 452 q 368 444 413 434 q 458 423 496 402 q 535 381 561 346 q 587 312 587 257 q 587 206 564 159 q 542 112 504 77 q 467 42 418 21 q 368 0 314 0 z"},">":{"x_min":0,"x_max":561,"ha":561,"o":"m 40 569 l 521 458 l 521 223 l 40 112 l 40 280 l 303 340 l 40 401 l 40 569 z"},"l":{"x_min":0,"x_max":494,"ha":494,"o":"m 204 163 l 454 163 l 454 0 l 40 0 l 40 736 l 204 736 l 204 163 z"},"8":{"x_min":0,"x_max":596,"ha":596,"o":"m 467 453 q 508 418 532 368 q 556 317 556 258 q 556 205 536 158 q 515 111 480 76 q 445 41 398 20 q 351 0 298 0 q 245 0 198 20 q 151 41 116 76 q 81 111 60 158 q 40 205 40 258 q 40 317 64 368 q 88 418 130 453 q 117 475 110 500 q 103 525 103 552 q 103 592 118 628 q 134 663 160 690 q 186 716 222 732 q 257 747 298 747 q 338 747 374 732 q 410 716 436 690 q 463 664 478 628 q 494 592 494 552 q 494 525 487 500 q 480 475 467 453 z m 276 574 q 273 572 270 566 q 266 560 266 552 q 266 538 276 529 q 285 520 298 520 q 312 520 321 529 q 330 538 330 552 q 330 565 321 574 q 312 584 298 584 q 290 584 284 580 q 278 577 276 574 z m 298 164 q 317 164 334 172 q 352 179 365 192 q 378 204 386 221 q 393 238 393 258 q 393 277 386 294 q 378 312 365 325 q 352 338 334 346 q 317 353 298 353 q 278 353 261 346 q 244 338 232 325 q 219 312 212 294 q 204 277 204 258 q 204 219 232 192 q 259 164 298 164 z"},"\\":{"x_min":0,"x_max":491,"ha":491,"o":"m 212 737 l 451 0 l 279 0 l 40 737 l 212 737 z"},"e":{"x_min":0,"x_max":556,"ha":556,"o":"m 516 572 l 204 572 l 204 449 l 516 449 l 516 286 l 204 286 l 204 163 l 516 163 l 516 0 l 142 0 l 142 0 l 40 0 l 40 736 l 204 736 l 204 735 l 516 735 l 516 572 z"},"b":{"x_min":0,"x_max":594,"ha":594,"o":"m 495 377 q 523 347 538 308 q 554 270 554 225 q 554 179 536 138 q 519 97 488 66 q 458 36 417 18 q 376 1 330 1 l 40 -1 l 40 735 l 316 735 q 362 735 403 718 q 444 700 474 669 q 505 638 522 597 q 540 556 540 510 q 540 472 528 438 q 516 405 495 377 z m 204 571 l 204 450 l 318 450 q 343 451 360 468 q 377 486 377 510 q 377 536 359 554 q 341 571 316 571 z m 330 165 q 356 165 374 182 q 391 200 391 225 q 391 251 374 268 q 356 286 330 286 l 204 286 l 204 165 z"},"%":{"x_min":0,"x_max":924,"ha":924,"o":"m 797 737 l 323 0 l 129 0 l 602 737 z m 400 553 q 400 516 386 483 q 372 450 348 426 q 323 401 290 387 q 257 373 220 373 q 183 373 150 387 q 117 401 92 426 q 68 450 54 483 q 40 516 40 553 q 40 590 54 623 q 68 656 92 680 q 117 705 150 719 q 183 733 220 733 q 257 733 290 719 q 323 705 348 680 q 372 656 386 623 q 400 590 400 553 z m 204 553 q 204 537 220 537 q 236 537 236 553 q 236 560 232 565 q 227 570 220 570 q 213 570 208 565 q 204 560 204 553 z m 704 361 q 741 361 774 347 q 807 333 832 308 q 856 284 870 251 q 884 218 884 181 q 884 144 870 111 q 856 78 832 54 q 807 29 774 15 q 741 1 704 1 q 667 1 634 15 q 602 29 578 54 q 553 78 539 111 q 525 144 525 181 q 525 218 539 251 q 553 284 578 308 q 602 333 634 347 q 667 361 704 361 z m 704 165 q 711 165 716 170 q 721 174 721 181 q 721 188 716 193 q 711 198 704 198 q 697 198 692 193 q 688 188 688 181 q 688 165 704 165 z"},"m":{"x_min":0,"x_max":805,"ha":805,"o":"m 516 735 l 765 736 l 765 0 l 601 0 l 601 428 l 483 0 l 323 0 l 204 437 l 204 0 l 40 0 l 40 736 l 291 735 l 403 327 l 516 735 z"},"#":{"x_min":0,"x_max":782,"ha":782,"o":"m 504 737 l 670 737 l 642 587 l 742 587 l 742 424 l 612 424 l 596 336 l 680 336 l 680 172 l 565 172 l 534 0 l 367 0 l 399 172 l 306 172 l 274 0 l 108 0 l 140 172 l 40 172 l 40 336 l 170 336 l 186 424 l 102 424 l 102 587 l 216 587 l 244 737 l 411 737 l 383 587 l 476 587 z m 429 336 l 446 424 l 352 424 l 336 336 z"},",":{"x_min":0,"x_max":302,"ha":302,"o":"m 116 -175 l 0 -59 q 48 -11 73 50 q 98 110 98 178 l 262 178 q 262 77 224 -14 q 187 -104 116 -175 z"},"n":{"x_min":0,"x_max":652,"ha":652,"o":"m 612 0 l 437 0 l 204 420 l 204 0 l 40 0 l 40 735 l 215 735 l 449 315 l 449 735 l 612 735 l 612 0 z"},"h":{"x_min":0,"x_max":638,"ha":638,"o":"m 435 736 l 598 736 l 598 0 l 435 0 l 435 286 l 204 286 l 204 0 l 40 0 l 40 736 l 204 736 l 204 449 l 435 449 l 435 736 z"},"z":{"x_min":0,"x_max":572,"ha":572,"o":"m 530 0 l 40 0 l 43 150 l 325 571 l 42 571 l 42 734 l 532 734 l 530 584 l 248 163 l 530 163 l 530 0 z"},"B":{"x_min":0,"x_max":594,"ha":594,"o":"m 495 377 q 523 347 538 308 q 554 270 554 225 q 554 179 536 138 q 519 97 488 66 q 458 36 417 18 q 376 1 330 1 l 40 -1 l 40 735 l 316 735 q 362 735 403 718 q 444 700 474 669 q 505 638 522 597 q 540 556 540 510 q 540 472 528 438 q 516 405 495 377 z m 204 571 l 204 450 l 318 450 q 343 451 360 468 q 377 486 377 510 q 377 536 359 554 q 341 571 316 571 z m 330 165 q 356 165 374 182 q 391 200 391 225 q 391 251 374 268 q 356 286 330 286 l 204 286 l 204 165 z"},"K":{"x_min":0,"x_max":679,"ha":679,"o":"m 204 0 l 40 0 l 40 734 l 204 734 l 204 450 l 422 735 l 629 735 l 394 430 l 639 0 l 451 0 l 286 289 l 204 182 l 204 0 z"},"R":{"x_min":0,"x_max":628,"ha":628,"o":"m 204 0 l 40 0 l 40 735 l 285 735 q 341 735 390 714 q 439 693 476 656 q 513 619 534 570 q 555 521 555 466 q 555 399 526 342 q 496 286 446 249 l 588 -1 l 400 -1 l 288 196 l 285 196 l 204 196 z m 204 359 l 285 359 q 307 359 326 368 q 346 376 360 390 q 375 405 384 424 q 392 444 392 466 q 392 488 384 507 q 375 526 360 540 q 346 555 326 564 q 307 572 285 572 l 204 572 z"},"T":{"x_min":0,"x_max":594,"ha":594,"o":"m 554 737 l 554 573 l 379 573 l 379 0 l 215 0 l 215 573 l 40 573 l 40 737 l 554 737 z"},"P":{"x_min":0,"x_max":595,"ha":595,"o":"m 285 735 q 341 735 390 714 q 439 693 476 656 q 513 619 534 570 q 555 521 555 466 q 555 410 534 361 q 513 312 476 275 q 439 238 390 217 q 341 196 285 196 l 204 196 l 204 0 l 40 0 l 40 735 z m 285 359 q 307 359 326 368 q 346 376 360 390 q 375 405 384 424 q 392 444 392 466 q 392 488 384 507 q 375 526 360 540 q 346 555 326 564 q 307 572 285 572 l 204 572 l 204 359 z"},"|":{"x_min":0,"x_max":244,"ha":244,"o":"m 204 0 l 40 0 l 40 736 l 204 736 l 204 0 z"},"t":{"x_min":0,"x_max":594,"ha":594,"o":"m 554 737 l 554 573 l 379 573 l 379 0 l 215 0 l 215 573 l 40 573 l 40 737 l 554 737 z"},"M":{"x_min":0,"x_max":805,"ha":805,"o":"m 516 735 l 765 736 l 765 0 l 601 0 l 601 428 l 483 0 l 323 0 l 204 437 l 204 0 l 40 0 l 40 736 l 291 735 l 403 327 l 516 735 z"},"g":{"x_min":0,"x_max":735,"ha":735,"o":"m 694 302 q 694 280 690 263 q 687 247 682 232 q 677 216 671 201 q 665 187 657 173 q 649 159 640 145 q 632 132 622 120 q 611 108 600 97 q 589 86 577 76 q 565 66 552 57 q 538 48 524 40 q 511 33 496 27 q 481 20 466 16 q 451 11 434 7 q 402 1 368 1 q 335 1 302 7 q 286 11 270 16 q 255 20 241 26 q 226 33 212 40 q 198 48 185 57 q 158 75 136 97 q 115 118 96 145 q 79 171 66 201 q 60 216 55 232 q 50 247 47 263 q 43 279 42 296 q 40 312 40 329 l 40 405 q 40 440 47 471 q 50 487 55 502 q 60 518 66 533 q 79 563 96 589 q 105 602 115 614 q 125 626 136 637 q 158 659 185 677 q 210 695 241 707 q 255 714 270 718 q 286 723 302 726 q 369 740 434 726 q 467 720 496 707 q 511 701 524 694 q 538 686 552 677 q 565 668 577 658 q 589 648 600 637 l 485 521 q 472 534 460 542 q 449 550 432 557 q 425 560 418 562 q 410 564 402 566 q 368 574 335 566 q 318 563 304 557 q 297 554 290 550 q 283 547 276 542 q 270 537 264 532 q 257 527 252 521 q 246 516 242 510 q 237 504 232 497 q 222 483 217 469 q 210 455 207 438 q 204 421 204 405 l 204 329 q 204 311 207 296 q 210 279 217 265 q 222 251 232 237 q 242 222 252 212 q 257 207 264 202 q 270 197 276 192 q 283 187 290 184 q 297 180 304 177 q 318 171 335 168 q 368 160 402 168 q 410 170 418 172 q 425 174 432 177 q 449 184 460 192 q 467 197 473 202 q 479 207 485 212 q 490 218 495 224 q 500 230 505 237 q 514 251 520 265 q 522 270 524 275 q 525 280 527 285 l 368 285 l 368 448 l 695 448 z"},"j":{"x_min":0,"x_max":612,"ha":612,"o":"m 306 0 q 252 0 204 20 q 156 40 118 78 q 80 116 60 164 q 40 212 40 266 l 40 363 l 204 363 l 204 266 q 204 246 212 227 q 219 208 234 194 q 248 179 267 172 q 286 164 306 164 q 327 164 346 172 q 364 180 378 194 q 392 207 400 226 q 408 245 408 266 l 408 734 l 572 734 l 572 266 q 572 211 551 162 q 530 114 494 78 q 458 42 410 21 q 361 0 306 0 z"},"i":{"x_min":0,"x_max":244,"ha":244,"o":"m 204 0 l 40 0 l 40 736 l 204 736 l 204 0 z"},"y":{"x_min":0,"x_max":658,"ha":658,"o":"m 447 736 l 618 736 l 380 0 l 208 0 l 270 192 l 214 192 l 40 736 l 212 736 l 328 371 l 447 736 z"},"@":{"x_min":0,"x_max":824,"ha":824,"o":"m 784 367 q 784 332 770 301 q 757 270 734 247 q 711 224 680 210 q 649 197 614 197 q 588 197 564 204 q 539 212 519 226 q 472 190 412 190 q 375 190 342 204 q 309 218 284 242 q 260 267 246 300 q 232 332 232 369 q 232 406 246 439 q 260 472 284 496 q 309 521 342 535 q 375 549 412 549 q 449 549 482 535 q 514 521 538 496 q 563 472 577 439 q 591 406 591 369 l 591 367 q 591 357 598 350 q 604 344 614 344 q 623 344 630 350 q 636 356 636 365 l 636 369 q 636 413 619 456 q 601 497 571 527 q 540 558 499 576 q 457 593 412 593 q 366 593 324 576 q 284 558 253 528 q 221 496 205 456 q 187 415 187 369 q 187 323 205 281 q 222 241 253 210 q 284 179 324 162 q 366 144 412 144 q 457 144 499 162 l 557 26 q 487 -3 412 -3 q 337 -3 267 26 q 200 55 149 106 q 98 157 69 224 q 40 294 40 369 q 40 444 69 513 q 83 547 103 576 q 123 606 149 632 q 175 658 204 678 q 234 697 267 711 q 302 726 338 733 q 374 740 412 740 q 450 740 486 733 q 522 726 557 711 q 590 697 620 678 q 649 658 675 632 q 701 606 720 576 q 740 547 754 513 q 783 444 783 372 z m 412 337 q 426 337 435 346 q 444 356 444 369 q 444 383 435 392 q 426 402 412 402 q 398 402 388 392 q 379 383 379 369 q 379 356 388 346 q 398 337 412 337 z"},".":{"x_min":0,"x_max":276,"ha":276,"o":"m 236 98 q 236 57 208 28 q 179 0 138 0 q 97 0 68 28 q 40 57 40 98 q 40 139 68 168 q 97 196 138 196 q 179 196 208 168 q 236 139 236 98 z"},"p":{"x_min":0,"x_max":595,"ha":595,"o":"m 285 735 q 341 735 390 714 q 439 693 476 656 q 513 619 534 570 q 555 521 555 466 q 555 410 534 361 q 513 312 476 275 q 439 238 390 217 q 341 196 285 196 l 204 196 l 204 0 l 40 0 l 40 735 z m 285 359 q 307 359 326 368 q 346 376 360 390 q 375 405 384 424 q 392 444 392 466 q 392 488 384 507 q 375 526 360 540 q 346 555 326 564 q 307 572 285 572 l 204 572 l 204 359 z"},"X":{"x_min":0,"x_max":689,"ha":689,"o":"m 649 734 l 439 367 l 649 0 l 461 0 l 344 203 l 228 0 l 40 0 l 250 367 l 40 734 l 229 734 l 344 532 l 460 734 l 649 734 z"},"*":{"x_min":0,"x_max":495,"ha":495,"o":"m 455 455 l 363 364 l 455 272 l 339 156 l 248 248 l 156 156 l 40 272 l 132 364 l 40 455 l 156 571 l 248 479 l 339 571 l 455 455 z"},"Y":{"x_min":0,"x_max":658,"ha":658,"o":"m 447 736 l 618 736 l 380 0 l 208 0 l 270 192 l 214 192 l 40 736 l 212 736 l 328 371 l 447 736 z"},"c":{"x_min":0,"x_max":729,"ha":729,"o":"m 368 -1 q 351 -1 334 1 q 318 3 302 6 q 286 9 270 14 q 255 19 240 25 q 226 32 212 40 q 198 47 184 56 q 171 64 159 74 q 147 85 136 96 q 113 117 96 144 q 78 171 65 200 q 54 228 46 262 q 40 293 40 328 l 40 404 q 40 437 46 470 q 50 486 54 502 q 59 517 65 532 q 72 546 80 560 q 87 574 96 587 q 104 601 114 613 q 125 625 136 636 q 157 657 184 676 q 210 693 240 706 q 255 712 270 717 q 286 722 302 725 q 368 739 434 725 q 450 722 466 717 q 481 712 496 706 q 527 693 551 676 q 578 658 600 636 q 622 614 640 587 q 657 563 670 532 q 682 504 689 470 l 529 437 q 526 453 520 468 q 512 484 504 496 q 497 509 484 520 q 479 526 473 530 q 467 535 460 540 q 448 548 432 556 q 417 562 401 565 q 367 573 335 565 q 319 562 304 556 q 288 548 276 540 q 269 535 263 530 q 257 526 251 520 q 239 508 231 496 q 221 482 216 468 q 213 460 210 452 q 208 445 206 437 q 203 420 203 404 l 203 328 q 203 310 206 294 q 208 286 210 278 q 213 271 216 264 q 223 247 231 236 q 236 229 241 223 q 246 217 251 211 q 257 206 263 201 q 269 196 276 191 q 290 181 304 176 q 312 173 320 170 q 327 168 335 166 q 367 160 401 166 q 409 168 416 170 q 424 173 432 176 q 446 181 460 191 q 472 199 484 211 q 490 217 495 223 q 500 229 504 236 q 509 242 512 249 q 516 256 520 264 q 523 271 525 278 q 527 286 529 294 l 689 262 q 683 229 670 200 q 659 172 640 144 q 631 131 621 119 q 611 107 600 96 q 589 85 577 74 q 565 64 551 56 q 538 47 524 40 q 510 32 496 25 q 481 19 466 14 q 450 9 434 6 q 417 3 401 1 q 385 -1 368 -1 z"},"!":{"x_min":0,"x_max":277,"ha":277,"o":"m 220 235 l 57 235 l 57 736 l 220 736 z m 138 196 q 180 196 208 168 q 237 139 237 98 q 237 57 208 28 q 180 0 138 0 q 97 0 68 28 q 40 57 40 98 q 40 139 68 168 q 97 196 138 196 z"},"/":{"x_min":0,"x_max":491,"ha":491,"o":"m 279 737 l 451 737 l 212 0 l 40 0 l 279 737 z"},"[":{"x_min":0,"x_max":354,"ha":354,"o":"m 314 0 l 40 0 l 40 729 l 314 729 l 314 566 l 204 566 l 204 163 l 314 163 l 314 0 z"},"6":{"x_min":0,"x_max":593,"ha":593,"o":"m 322 511 q 371 506 413 484 q 455 463 486 428 q 517 394 535 350 q 553 306 553 256 q 553 203 533 156 q 513 110 478 75 q 443 40 396 20 q 350 0 297 0 q 244 0 197 20 q 150 40 115 75 q 80 110 60 156 q 40 203 40 256 q 40 290 48 322 q 57 353 72 380 l 72 381 l 253 735 l 437 735 z m 297 163 q 316 163 333 170 q 350 178 362 190 q 375 203 382 220 q 390 237 390 256 q 390 275 382 292 q 375 309 362 322 q 350 334 333 342 q 316 349 297 349 q 277 349 260 342 q 244 334 231 322 q 218 309 211 292 q 204 275 204 256 q 204 237 211 220 q 218 203 231 190 q 244 178 260 170 q 277 163 297 163 z"},"r":{"x_min":0,"x_max":628,"ha":628,"o":"m 204 0 l 40 0 l 40 735 l 285 735 q 341 735 390 714 q 439 693 476 656 q 513 619 534 570 q 555 521 555 466 q 555 399 526 342 q 496 286 446 249 l 588 -1 l 400 -1 l 288 196 l 285 196 l 204 196 z m 204 359 l 285 359 q 307 359 326 368 q 346 376 360 390 q 375 405 384 424 q 392 444 392 466 q 392 488 384 507 q 375 526 360 540 q 346 555 326 564 q 307 572 285 572 l 204 572 z"},"2":{"x_min":0,"x_max":575,"ha":575,"o":"m 535 0 l 40 0 l 40 82 q 40 123 57 158 q 74 194 102 225 q 129 256 164 284 q 198 313 234 340 q 256 356 280 376 q 304 395 324 414 q 344 433 358 450 q 371 468 371 482 q 371 500 366 516 q 360 533 350 546 q 339 560 324 568 q 308 576 287 576 q 266 576 250 568 q 235 560 224 546 q 214 533 209 516 q 204 500 204 482 l 40 482 q 40 536 59 583 q 78 630 112 664 q 145 699 190 719 q 235 739 287 739 q 339 739 384 719 q 430 699 464 664 q 497 630 516 583 q 535 536 535 482 q 535 438 516 400 q 498 362 469 329 q 440 296 404 266 q 368 237 333 210 q 319 199 304 188 q 289 176 274 164 l 535 164 z"},"{":{"x_min":0,"x_max":354,"ha":354,"o":"m 314 0 l 40 0 l 40 729 l 314 729 l 314 566 l 204 566 l 204 163 l 314 163 l 314 0 z"},"9":{"x_min":0,"x_max":593,"ha":593,"o":"m 553 477 q 553 442 544 411 q 536 380 521 352 l 341 0 l 157 0 l 271 221 q 223 226 180 248 q 138 270 107 304 q 76 338 58 382 q 40 427 40 477 q 40 530 60 576 q 80 623 115 658 q 150 693 197 713 q 244 733 297 733 q 350 733 396 713 q 443 693 478 658 q 513 623 533 576 q 553 530 553 477 z m 297 384 q 316 384 333 391 q 350 398 362 411 q 375 424 382 440 q 390 457 390 477 q 390 496 382 513 q 375 530 362 542 q 350 555 333 562 q 316 569 297 569 q 277 569 260 562 q 244 555 231 542 q 218 530 211 513 q 204 496 204 477 q 204 438 231 411 q 258 384 297 384 z"}," ":{"x_min":0,"x_max":182,"ha":182,"o":""},"I":{"x_min":0,"x_max":244,"ha":244,"o":"m 204 0 l 40 0 l 40 736 l 204 736 l 204 0 z"},"H":{"x_min":0,"x_max":638,"ha":638,"o":"m 435 736 l 598 736 l 598 0 l 435 0 l 435 286 l 204 286 l 204 0 l 40 0 l 40 736 l 204 736 l 204 449 l 435 449 l 435 736 z"},"4":{"x_min":0,"x_max":563,"ha":563,"o":"m 360 280 l 360 418 l 523 418 l 523 0 l 360 0 l 360 117 l 40 117 l 40 280 l 42 280 l 41 281 l 274 736 l 458 736 l 224 280 l 360 280 z"},"D":{"x_min":0,"x_max":654,"ha":654,"o":"m 246 735 q 322 735 389 706 q 456 677 506 627 q 556 577 585 510 q 614 444 614 368 q 614 292 585 225 q 556 158 506 108 q 456 58 389 29 q 322 0 246 0 l 40 0 l 40 735 z m 246 164 q 288 164 326 180 q 363 196 390 224 q 418 251 434 288 q 450 326 450 368 q 450 410 434 447 q 418 484 390 512 q 363 540 326 556 q 288 572 246 572 l 204 572 l 204 164 z"},"^":{"x_min":0,"x_max":537,"ha":537,"o":"m 208 254 l 40 254 l 151 735 l 386 735 l 497 254 l 329 254 l 269 517 l 208 254 z"},"0":{"x_min":0,"x_max":816,"ha":816,"o":"m 408 736 q 484 736 551 707 q 618 678 668 628 q 718 578 747 511 q 776 444 776 368 q 776 292 747 225 q 718 158 668 108 q 618 58 551 29 q 484 0 408 0 q 332 0 265 29 q 198 58 148 108 q 98 158 69 225 q 40 292 40 368 q 40 444 69 511 q 98 578 148 628 q 198 678 265 707 q 332 736 408 736 z m 408 163 q 450 163 488 179 q 525 195 552 223 q 580 251 596 288 q 612 326 612 368 q 612 410 596 447 q 580 484 552 512 q 525 540 488 556 q 450 572 408 572 q 366 572 328 556 q 291 540 264 512 q 236 484 220 447 q 204 410 204 368 q 204 326 220 288 q 236 251 264 223 q 291 195 328 179 q 366 163 408 163 z"},"F":{"x_min":0,"x_max":521,"ha":521,"o":"m 481 572 l 204 572 l 204 449 l 481 449 l 481 286 l 204 286 l 204 0 l 40 0 l 40 735 l 481 735 l 481 572 z"},"k":{"x_min":0,"x_max":679,"ha":679,"o":"m 204 0 l 40 0 l 40 734 l 204 734 l 204 450 l 422 735 l 629 735 l 394 430 l 639 0 l 451 0 l 286 289 l 204 182 l 204 0 z"},"u":{"x_min":0,"x_max":638,"ha":638,"o":"m 319 0 q 261 0 210 22 q 160 44 122 82 q 84 120 62 170 q 40 221 40 279 l 40 735 l 204 735 l 204 279 q 204 255 213 234 q 222 213 238 197 q 254 181 274 172 q 295 163 319 163 q 343 163 364 172 q 385 181 401 197 q 417 213 426 234 q 435 255 435 279 l 435 735 l 598 735 l 598 279 q 598 221 576 170 q 554 120 516 82 q 478 44 428 22 q 377 0 319 0 z"},"]":{"x_min":0,"x_max":354,"ha":354,"o":"m 40 729 l 314 729 l 314 0 l 40 0 l 40 163 l 151 163 l 151 566 l 40 566 l 40 729 z"},"U":{"x_min":0,"x_max":638,"ha":638,"o":"m 319 0 q 261 0 210 22 q 160 44 122 82 q 84 120 62 170 q 40 221 40 279 l 40 735 l 204 735 l 204 279 q 204 255 213 234 q 222 213 238 197 q 254 181 274 172 q 295 163 319 163 q 343 163 364 172 q 385 181 401 197 q 417 213 426 234 q 435 255 435 279 l 435 735 l 598 735 l 598 279 q 598 221 576 170 q 554 120 516 82 q 478 44 428 22 q 377 0 319 0 z"},"o":{"x_min":0,"x_max":816,"ha":816,"o":"m 408 735 q 484 735 551 706 q 618 677 668 628 q 718 578 747 511 q 776 444 776 368 q 776 291 747 224 q 718 157 668 108 q 618 58 551 29 q 484 0 408 0 q 332 0 265 29 q 198 58 148 108 q 98 157 69 224 q 40 291 40 368 q 40 444 69 511 q 98 578 148 628 q 198 677 265 706 q 332 735 408 735 z m 408 163 q 450 163 488 179 q 525 195 552 223 q 580 251 596 288 q 612 326 612 368 q 612 410 596 447 q 580 484 552 512 q 525 540 488 556 q 450 572 408 572 q 366 572 328 556 q 291 540 264 512 q 236 484 220 447 q 204 410 204 368 q 204 326 220 288 q 236 251 264 223 q 291 195 328 179 q 366 163 408 163 z"},"N":{"x_min":0,"x_max":652,"ha":652,"o":"m 612 0 l 437 0 l 204 420 l 204 0 l 40 0 l 40 735 l 215 735 l 449 315 l 449 735 l 612 735 l 612 0 z"},"+":{"x_min":0,"x_max":503,"ha":503,"o":"m 463 445 l 463 282 l 333 282 l 333 152 l 170 152 l 170 282 l 40 282 l 40 445 l 170 445 l 170 575 l 333 575 l 333 445 l 463 445 z"},"G":{"x_min":0,"x_max":735,"ha":735,"o":"m 694 302 q 694 280 690 263 q 687 247 682 232 q 677 216 671 201 q 665 187 657 173 q 649 159 640 145 q 632 132 622 120 q 611 108 600 97 q 589 86 577 76 q 565 66 552 57 q 538 48 524 40 q 511 33 496 27 q 481 20 466 16 q 451 11 434 7 q 402 1 368 1 q 335 1 302 7 q 286 11 270 16 q 255 20 241 26 q 226 33 212 40 q 198 48 185 57 q 158 75 136 97 q 115 118 96 145 q 79 171 66 201 q 60 216 55 232 q 50 247 47 263 q 43 279 42 296 q 40 312 40 329 l 40 405 q 40 440 47 471 q 50 487 55 502 q 60 518 66 533 q 79 563 96 589 q 105 602 115 614 q 125 626 136 637 q 158 659 185 677 q 210 695 241 707 q 255 714 270 718 q 286 723 302 726 q 369 740 434 726 q 467 720 496 707 q 511 701 524 694 q 538 686 552 677 q 565 668 577 658 q 589 648 600 637 l 485 521 q 472 534 460 542 q 449 550 432 557 q 425 560 418 562 q 410 564 402 566 q 368 574 335 566 q 318 563 304 557 q 297 554 290 550 q 283 547 276 542 q 270 537 264 532 q 257 527 252 521 q 246 516 242 510 q 237 504 232 497 q 222 483 217 469 q 210 455 207 438 q 204 421 204 405 l 204 329 q 204 311 207 296 q 210 279 217 265 q 222 251 232 237 q 242 222 252 212 q 257 207 264 202 q 270 197 276 192 q 283 187 290 184 q 297 180 304 177 q 318 171 335 168 q 368 160 402 168 q 410 170 418 172 q 425 174 432 177 q 449 184 460 192 q 467 197 473 202 q 479 207 485 212 q 490 218 495 224 q 500 230 505 237 q 514 251 520 265 q 522 270 524 275 q 525 280 527 285 l 368 285 l 368 448 l 695 448 z"},"q":{"x_min":0,"x_max":816,"ha":816,"o":"m 390 0 l 367 2 q 298 9 238 40 q 179 72 134 121 q 90 170 65 234 q 40 297 40 368 q 40 444 69 511 q 98 578 148 628 q 198 677 265 706 q 332 735 408 735 q 484 735 551 706 q 618 677 668 628 q 718 578 747 511 q 776 444 776 368 q 776 311 760 260 q 743 208 714 163 l 776 163 l 776 0 z m 204 368 q 204 326 220 288 q 236 251 264 223 q 291 195 328 179 q 366 163 408 163 q 450 163 488 179 q 525 195 552 223 q 580 251 596 288 q 612 326 612 368 q 612 410 596 447 q 580 484 552 512 q 525 540 488 556 q 450 572 408 572 q 366 572 328 556 q 291 540 264 512 q 236 484 220 447 q 204 410 204 368 z"},"d":{"x_min":0,"x_max":654,"ha":654,"o":"m 246 735 q 322 735 389 706 q 456 677 506 627 q 556 577 585 510 q 614 444 614 368 q 614 292 585 225 q 556 158 506 108 q 456 58 389 29 q 322 0 246 0 l 40 0 l 40 735 z m 246 164 q 288 164 326 180 q 363 196 390 224 q 418 251 434 288 q 450 326 450 368 q 450 410 434 447 q 418 484 390 512 q 363 540 326 556 q 288 572 246 572 l 204 572 l 204 164 z"},"1":{"x_min":0,"x_max":352,"ha":352,"o":"m 312 736 l 312 0 l 149 0 l 149 484 q 96 462 40 462 l 40 625 q 62 625 82 634 q 102 642 117 657 q 132 672 140 692 q 149 711 149 734 l 149 736 z"},"5":{"x_min":0,"x_max":596,"ha":596,"o":"m 298 0 q 246 0 199 20 q 152 39 116 76 q 79 112 60 159 q 40 206 40 258 l 204 258 q 204 218 231 191 q 260 164 298 164 q 336 164 365 191 q 393 219 393 258 q 393 297 365 325 q 337 353 298 353 l 82 352 l 82 741 l 501 741 l 501 577 l 245 577 l 245 516 l 298 516 q 350 516 397 496 q 444 477 481 441 q 517 404 536 357 q 556 310 556 258 q 556 206 536 159 q 517 112 481 76 q 444 39 397 20 q 350 0 298 0 z"}}}
